<svg id="Capa_1" enable-background="new 0 0 512 512" height="512" viewBox="0 0 512 512" width="512" xmlns="http://www.w3.org/2000/svg"><g><g><g><g><path d="m261.762 210.546-102.674-69.888-33.715 24.33 66.931 45.558z" fill="#e7a561"/></g><g><path d="m159.088 140.658-15.341 11.071 86.409 58.817h31.606z" fill="#e4936b"/></g><g><path d="m320.673 210.546 66.931-45.558-33.715-24.33-102.674 69.888z" fill="#e7a561"/></g><g><path d="m288.349 210.546h32.324l66.931-45.558-15.69-11.323z" fill="#e4936b"/></g></g><g><g><path d="m236.408 82.415h39.084v140.182h-39.084z" fill="#e7a561"/></g></g><g><path d="m256.742 82.415h18.749v140.182h-18.749z" fill="#e4936b"/></g><g><path d="m51.908 298.728h419.948v39.084h-419.948z" fill="#e7a561"/></g><g><path d="m357.976 298.728 25.94 16.825c1.63 1.058.886 3.588-1.058 3.594l-330.95.957v17.708h419.948v-39.084z" fill="#e4936b"/></g><g><g><path d="m164.255 233.002h39.084v183.242h-39.084z" fill="#e7a561"/></g></g><g><g><path d="m309.638 233.002h39.084v183.242h-39.084z" fill="#e7a561"/></g></g><g><path d="m184.753 233.002h18.586v183.242h-18.586z" fill="#e4936b"/></g><g><path d="m330.136 233.002h18.586v183.242h-18.586z" fill="#e4936b"/></g><g><path d="m143.35 237.432-110.894 75.483 21.769 32.462 158.583-107.945z" fill="#ecbe6b"/></g><g><path d="m369.628 237.432 110.893 75.483-21.768 32.462-158.584-107.945z" fill="#ecbe6b"/></g><g><path d="m470.788 327.429 9.733-14.514-110.893-75.483h-31.055z" fill="#e7a561"/></g><g><path d="m180.183 237.432-136.183 92.698 10.225 15.247 158.583-107.945z" fill="#e7a561"/></g><g><path d="m499.786 454.823h-487.572c-2.698 0-4.885-2.187-4.885-4.885v-50.651c0-2.698 2.187-4.885 4.885-4.885h487.573c2.698 0 4.885 2.187 4.885 4.885v50.651c0 2.697-2.188 4.885-4.886 4.885z" fill="#dae4ea"/></g><g><path d="m499.786 394.401h-14.91v35.741c0 2.698-2.187 4.885-4.885 4.885h-472.663v14.91c0 2.698 2.187 4.885 4.885 4.885h487.573c2.698 0 4.885-2.187 4.885-4.885v-50.651c.001-2.698-2.187-4.885-4.885-4.885z" fill="#b9c1cb"/></g><g><g><path d="m45.481 203.055h420.98v39.084h-420.98z" fill="#ecbe6b"/></g></g><g><path d="m374.756 203.055 26.203 17.235c1.621 1.066.866 3.587-1.074 3.587h-354.404v18.263h420.98v-39.084h-91.705z" fill="#e7a561"/></g><g><g><path d="m485.72 424.611h-29.313c-2.698 0-4.885-2.187-4.885-4.885v-185.757c0-.647-.32-1.252-.855-1.615l-193.617-131.793c-.664-.452-1.536-.452-2.199 0l-193.618 131.792c-.535.364-.855.969-.855 1.615v185.757c0 2.698-2.187 4.885-4.885 4.885h-29.313c-2.698 0-4.885-2.187-4.885-4.885v-195.66c0-7.395 3.651-14.294 9.766-18.452l212.332-144.532c7.63-5.195 17.488-5.192 25.116.001l212.338 144.535c6.108 4.154 9.759 11.052 9.759 18.448v195.661c0 2.698-2.187 4.885-4.886 4.885z" fill="#ecbe6b"/></g></g><g><g><path d="m480.847 205.617-212.338-144.535c-7.628-5.193-17.486-5.196-25.116-.001l-3.533 2.405 222.238 151.993c6.108 4.154 9.759 11.052 9.759 18.448v190.685h13.864c2.698 0 4.885-2.187 4.885-4.885v-195.662c0-7.396-3.651-14.294-9.759-18.448z" fill="#e7a561"/></g></g></g><path d="m499.786 387.073h-1.852v-163.008c0-9.824-4.847-18.987-12.964-24.506l-139.416-94.899c-3.345-2.276-7.904-1.41-10.182 1.935-2.277 3.345-1.411 7.904 1.935 10.181l139.419 94.901c4.103 2.789 6.552 7.42 6.552 12.387v193.219h-24.428v-183.314c0-3.075-1.518-5.945-4.059-7.674l-193.62-131.794c-3.173-2.157-7.271-2.156-10.444.002l-193.616 131.791c-2.542 1.73-4.061 4.599-4.061 7.675v183.315h-24.427v-193.219c0-4.968 2.452-9.6 6.561-12.394l212.333-144.533c5.123-3.487 11.744-3.487 16.869.002l44.682 30.414c3.346 2.278 7.904 1.411 10.182-1.935 2.277-3.345 1.411-7.904-1.935-10.181l-44.682-30.414c-10.135-6.899-23.231-6.9-33.364-.001l-212.33 144.53c-8.124 5.525-12.973 14.688-12.973 24.512v163.008h-1.752c-6.735 0-12.214 5.479-12.214 12.213v50.651c0 6.735 5.479 12.214 12.214 12.214h113.16c4.047 0 7.328-3.281 7.328-7.328 0-4.048-3.281-7.328-7.328-7.328h-110.718v-23.758c1.665 4.768 6.195 8.203 11.523 8.203h29.313c6.735 0 12.214-5.479 12.214-12.214v-17.997h376.487v17.997c0 6.735 5.479 12.214 12.214 12.214h29.313c5.462 0 10.096-3.604 11.654-8.558l-.031 24.113h-336.775c-4.047 0-7.328 3.281-7.328 7.328 0 4.048 3.281 7.328 7.328 7.328h339.218c6.735 0 12.214-5.479 12.214-12.214v-50.651c0-6.734-5.479-12.213-12.214-12.213zm-115.95-191.346h-28.368l14.184-9.655zm-27.208-18.52-27.207 18.52h-43.411l48.913-33.295zm-73.808-50.239 39.079 26.6-39.079 26.601zm-39.084-9.977 12.214-8.314 12.214 8.314v78.736h-24.427v-78.736zm-14.656 9.977v52.467l-38.54-26.234zm-51.564 35.098 49.451 33.661h-43.411l-27.746-18.886zm-34.729 23.64 14.722 10.021h-29.445zm-75.08 63.762h44.938l-44.938 30.588zm0 48.318 70.912-48.318h43.484l-114.396 77.867zm89.22 89.287h-89.22v-41.933h89.22zm0-56.589h-67.799l35.887-24.427h31.912zm0-39.084h-10.38l10.38-7.065zm39.083 95.673h-24.427v-112.715l24.427-16.627zm106.3 0h-91.643v-41.933h91.643zm0-56.589h-91.643v-24.427h91.643zm0-39.084h-91.643v-41.932h6.982c4.047 0 7.328-3.281 7.328-7.328s-3.281-7.328-7.328-7.328h-147.004l35.887-24.427h298.837l35.887 24.427h-189.064c-4.047 0-7.328 3.281-7.328 7.328s3.281 7.328 7.328 7.328h50.118zm39.084 95.673h-24.427v-129.342l24.427 16.627zm102.8 0h-88.143v-41.933h88.143zm-56.232-81.017 35.887 24.427h-67.798v-24.427zm-31.911-14.656v-7.065l10.379 7.065zm88.143 35.202-113.32-77.135h43.411l69.909 47.585zm0-47.279-43.861-29.855h43.861z"/></g></svg>