<svg id="Capa_1" enable-background="new 0 0 512 512" height="512" viewBox="0 0 512 512" width="512" xmlns="http://www.w3.org/2000/svg"><g><path d="m60 69.49h60v155h-60z" fill="#aa897b"/><path d="m256 294.49v105l152.378-23.323v-58.354z" fill="#aa897b"/><path d="m399.5 346.99c0 10.789 3.275 20.827 8.878 29.177l43.622-6.677v-45l-43.622-6.677c-5.603 8.35-8.878 18.387-8.878 29.177z" fill="#996e5c"/><g fill="#aa897b"><path d="m256 294.49-196 30v45l196 30z"/><path d="m256 384.49-196 30v45l196 30z"/><path d="m256 384.49v105l152.378-23.323v-58.354z"/></g><path d="m399.5 436.99c0 10.789 3.275 20.827 8.878 29.177l43.622-6.677v-45l-43.622-6.677c-5.603 8.35-8.878 18.387-8.878 29.177z" fill="#996e5c"/><path d="m60 459.49v45h136l60-45z" fill="#bba399"/><path d="m60 369.49h196v45h-196z" fill="#bba399"/><path d="m256 369.49h148.576v45h-148.576z" fill="#bba399"/><path d="m399.5 391.99c0 8.048 1.825 15.676 5.076 22.5h47.424v-45h-47.424c-3.251 6.823-5.076 14.452-5.076 22.5z" fill="#aa897b"/><path d="m256 459.49 60 45h88.576v-45z" fill="#bba399"/><path d="m399.5 481.99c0 8.048 1.825 15.676 5.076 22.5h47.424v-45h-47.424c-3.251 6.823-5.076 14.452-5.076 22.5z" fill="#aa897b"/><path d="m196 294.49h120v210h-120z" fill="#7a5a5f"/><path d="m60 249.49v75h344.576l47.424-75z" fill="#bba399"/><path d="m452 249.49c-28.948 0-52.5 23.552-52.5 52.5 0 8.048 1.825 15.676 5.076 22.5h47.424z" fill="#aa897b"/><path d="m256 22.49-32.95 30.798 32.95 202.169h196l1.756-.223 24.758-24.758z" fill="#7a5a5f"/><path d="m439.342 255.457-216.292-202.169-189.565 177.187 24.696 24.696 1.819.286z" fill="#996e5c"/><path d="m256 234.49-30 22.5 30 22.5h148.576v-45z" fill="#aa897b"/><path d="m60 234.49h196v45h-196z" fill="#ccbeb8"/><path d="m399.5 256.99c0 8.048 1.825 15.676 5.076 22.5h47.424v-45h-47.424c-3.251 6.823-5.076 14.452-5.076 22.5z" fill="#996e5c"/><circle cx="60" cy="481.99" fill="#ccbeb8" r="22.5"/><circle cx="60" cy="436.99" fill="#bba399" r="22.5"/><circle cx="60" cy="391.99" fill="#ccbeb8" r="22.5"/><circle cx="452" cy="481.99" fill="#ccbeb8" r="22.5"/><circle cx="452" cy="436.99" fill="#bba399" r="22.5"/><circle cx="452" cy="391.99" fill="#ccbeb8" r="22.5"/><circle cx="60" cy="346.99" fill="#bba399" r="22.5"/><circle cx="60" cy="301.99" fill="#ccbeb8" r="22.5"/><circle cx="452" cy="346.99" fill="#bba399" r="22.5"/><circle cx="452" cy="301.99" fill="#ccbeb8" r="22.5"/><circle cx="60" cy="256.99" fill="#bba399" r="22.5"/><circle cx="452" cy="256.99" fill="#bba399" r="22.5"/><circle cx="256" cy="159.49" fill="#fff" r="30"/><path d="m266.243 11.531c-5.765-5.389-14.721-5.389-20.485 0l-238.258 222.701v41.064l248.5-232.274 248.5 232.275v-41.065z" fill="#5b4763"/><path d="m256 121.99c-20.678 0-37.5 16.822-37.5 37.5s16.822 37.5 37.5 37.5 37.5-16.822 37.5-37.5-16.822-37.5-37.5-37.5zm0 60c-12.407 0-22.5-10.094-22.5-22.5s10.093-22.5 22.5-22.5c12.406 0 22.5 10.094 22.5 22.5s-10.094 22.5-22.5 22.5z"/><path d="m509.622 228.752-238.258-222.701c-8.616-8.055-22.113-8.055-30.729 0l-113.135 105.749v-42.31c0-4.143-3.358-7.5-7.5-7.5h-60c-4.142 0-7.5 3.357-7.5 7.5v112.414l-50.122 46.848c-1.517 1.419-2.378 3.403-2.378 5.48v41.064c0 2.987 1.773 5.69 4.513 6.88 2.74 1.188 5.926.639 8.108-1.4l18.165-16.979c1.441 6.178 4.793 11.63 9.402 15.693-6.24 5.501-10.188 13.546-10.188 22.5s3.948 16.999 10.189 22.5c-6.241 5.501-10.189 13.546-10.189 22.5s3.948 16.999 10.189 22.5c-6.241 5.501-10.189 13.546-10.189 22.5s3.948 16.999 10.189 22.5c-6.241 5.501-10.189 13.546-10.189 22.5s3.948 16.999 10.189 22.5c-6.241 5.501-10.189 13.546-10.189 22.5 0 16.542 13.458 30 30 30h392c16.542 0 30-13.458 30-30 0-8.954-3.948-16.999-10.189-22.5 6.241-5.501 10.189-13.546 10.189-22.5s-3.948-16.999-10.189-22.5c6.241-5.501 10.189-13.546 10.189-22.5s-3.948-16.999-10.189-22.5c6.241-5.501 10.189-13.546 10.189-22.5s-3.948-16.999-10.189-22.5c6.241-5.501 10.189-13.546 10.189-22.5s-3.948-16.999-10.189-22.5c4.609-4.063 7.961-9.515 9.402-15.693l18.165 16.979c2.183 2.039 5.368 2.589 8.108 1.4s4.513-3.893 4.513-6.88v-41.064c.001-2.077-.86-4.061-2.377-5.48zm-442.122-151.762h45v48.831l-45 42.062zm-7.5 420c-8.271 0-15-6.729-15-15s6.729-15 15-15 15 6.729 15 15-6.729 15-15 15zm0-45c-8.271 0-15-6.729-15-15s6.729-15 15-15 15 6.729 15 15-6.729 15-15 15zm0-45c-8.271 0-15-6.729-15-15s6.729-15 15-15 15 6.729 15 15-6.729 15-15 15zm0-45c-8.271 0-15-6.729-15-15s6.729-15 15-15 15 6.729 15 15-6.729 15-15 15zm0-45c-8.271 0-15-6.729-15-15s6.729-15 15-15 15 6.729 15 15-6.729 15-15 15zm0-45c-8.271 0-15-6.729-15-15 0-4.096 1.653-7.81 4.323-10.519l.56-.524c2.671-2.449 6.216-3.957 10.117-3.957 8.271 0 15 6.729 15 15s-6.729 15-15 15zm10.165-45 185.835-173.701 185.835 173.701zm118.335 270h-102.536c2.561-4.416 4.036-9.538 4.036-15s-1.475-10.584-4.036-15h102.536zm0-45h-102.536c2.561-4.416 4.036-9.538 4.036-15s-1.475-10.584-4.036-15h102.536zm0-45h-102.536c2.561-4.416 4.036-9.538 4.036-15s-1.475-10.584-4.036-15h102.536zm0-45h-102.536c2.561-4.416 4.036-9.538 4.036-15s-1.475-10.584-4.036-15h102.536zm120 135h-105v-165h105zm117.536 0h-102.536v-30h102.536c-2.561 4.416-4.036 9.538-4.036 15s1.475 10.583 4.036 15zm0-45h-102.536v-30h102.536c-2.561 4.416-4.036 9.538-4.036 15s1.475 10.583 4.036 15zm0-45h-102.536v-30h102.536c-2.561 4.416-4.036 9.538-4.036 15s1.475 10.583 4.036 15zm0-45h-102.536v-30h102.536c-2.561 4.416-4.036 9.538-4.036 15s1.475 10.583 4.036 15zm0-45h-340.072c2.561-4.416 4.036-9.538 4.036-15s-1.475-10.584-4.036-15h38.286c4.142 0 7.5-3.357 7.5-7.5s-3.358-7.5-7.5-7.5h-38.286c2.561-4.416 4.036-9.538 4.036-15s-1.475-10.584-4.036-15h162.536v30h-94.25c-4.142 0-7.5 3.357-7.5 7.5s3.358 7.5 7.5 7.5h271.786c-2.561 4.416-4.036 9.538-4.036 15s1.475 10.583 4.036 15zm0-45h-162.536v-30h162.536c-2.561 4.416-4.036 9.538-4.036 15s1.475 10.583 4.036 15zm25.964 225c-8.271 0-15-6.729-15-15s6.729-15 15-15 15 6.729 15 15-6.729 15-15 15zm0-45c-8.271 0-15-6.729-15-15s6.729-15 15-15 15 6.729 15 15-6.729 15-15 15zm0-45c-8.271 0-15-6.729-15-15s6.729-15 15-15 15 6.729 15 15-6.729 15-15 15zm0-45c-8.271 0-15-6.729-15-15s6.729-15 15-15 15 6.729 15 15-6.729 15-15 15zm0-45c-8.271 0-15-6.729-15-15s6.729-15 15-15 15 6.729 15 15-6.729 15-15 15zm15-60c0 8.271-6.729 15-15 15s-15-6.729-15-15 6.729-15 15-15c3.897 0 7.44 1.506 10.11 3.951l.568.531c2.669 2.709 4.322 6.423 4.322 10.518zm30 1.03-235.878-220.478c-1.441-1.347-3.282-2.021-5.122-2.021s-3.68.674-5.122 2.021l-235.878 220.478v-20.532l235.879-220.479c2.873-2.684 7.37-2.683 10.242 0l235.879 220.479z"/><circle cx="286" cy="414.49" r="7.5"/></g></svg>